<?xml version="1.0" encoding="iso-8859-1"?>
<!-- Uploaded to: SVG Repo, www.svgrepo.com, Generator: SVG Repo Mixer Tools -->
<svg height="800px" width="800px" version="1.1" id="Layer_1" xmlns="http://www.w3.org/2000/svg" xmlns:xlink="http://www.w3.org/1999/xlink" 
	 viewBox="0 0 488 488" xml:space="preserve">
<path style="fill:#BACBCC;" d="M488,452.965c0,0,0,0,0-1.6c0-98.4-119.2-176.8-239.2-176.8s-239.2,78.4-239.2,176c0,0.8,0,1.6,0,1.6
	H488V452.965z"/>
<path style="fill:#A1B4B5;" d="M488,452.165c0-98.4-119.2-176.8-239.2-176.8c-8,0-15.2,0.8-23.2,1.6l-99.2,96.8l80.8,79.2H488
	C488,452.965,488,452.965,488,452.165z"/>
<path style="fill:#CEDCDD;" d="M180,117.765c16,39.2-15.2,54.4-39.2,64s-60.8,65.6-76,26.4c-16-39.2-1.6-164,21.6-173.6
	S164,78.565,180,117.765z"/>
<path style="fill:#C10865;" d="M164,112.165c16,39.2,5.6,59.2-18.4,68.8s-48,30.4-64-8.8S64,49.765,88,39.365
	C112.8,29.765,148,72.965,164,112.165z"/>
<path style="fill:#A5085E;" d="M88.8,40.165c24-9.6,59.2,32.8,75.2,72s5.6,59.2-18.4,68.8"/>
<path style="fill:#CEDCDD;" d="M310.4,117.765c-16,39.2,15.2,54.4,39.2,64s60.8,65.6,76,26.4c16-39.2,1.6-164-21.6-173.6
	C379.2,24.965,326.4,78.565,310.4,117.765z"/>
<path style="fill:#C10865;" d="M326.4,112.165c-16,39.2-5.6,59.2,18.4,68.8s48,30.4,64-8.8s17.6-122.4-6.4-132.8
	C377.6,29.765,341.6,72.965,326.4,112.165z"/>
<path style="fill:#A5085E;" d="M401.6,40.165c-24-9.6-59.2,32.8-75.2,72c-16,39.2-5.6,59.2,18.4,68.8"/>
<path style="fill:#D81A71;" d="M401.6,305.765c0,66.4-68,120-152.8,120c-84,0-152.8-53.6-152.8-120s68-99.2,152.8-99.2
	C333.6,206.565,401.6,240.165,401.6,305.765z"/>
<path style="fill:#C10865;" d="M248.8,206.565c-80,0-145.6,29.6-152,88.8c6.4,61.6,72,109.6,152,109.6s145.6-48,152-109.6
	C394.4,236.165,328.8,206.565,248.8,206.565z"/>
<path style="fill:#DFEDEC;" d="M436,235.365c0,80.8-84,146.4-187.2,146.4s-187.2-65.6-187.2-146.4s84-136.8,187.2-136.8
	C352,98.565,436,153.765,436,235.365z"/>
<path style="fill:#CEDCDD;" d="M436,235.365c0,80.8-84,146.4-187.2,146.4s-187.2-65.6-187.2-146.4s84-121.6,187.2-121.6
	S436,153.765,436,235.365z"/>
<path style="fill:#BACBCC;" d="M248.8,113.765c103.2,0,187.2,40.8,187.2,121.6s-84,146.4-187.2,146.4"/>
<circle style="fill:#EFC618;" cx="248.8" cy="423.365" r="31.2"/>
<path style="fill:#EDB61B;" d="M226.4,400.965c12-12,32-12,44.8,0c12,12,12,32,0,44.8"/>
<path style="fill:#A3B5B5;" d="M208,213.765c0,14.4-11.2,34.4-25.6,34.4c-14.4,0-25.6-20.8-25.6-34.4c0-14.4,11.2-25.6,25.6-25.6
	C196,188.165,208,199.365,208,213.765z"/>
<circle style="fill:#2C363A;" cx="182.4" cy="213.765" r="25.6"/>
<path d="M182.4,188.165c14.4,0,25.6,11.2,25.6,25.6c0,14.4-11.2,25.6-25.6,25.6"/>
<path style="fill:#5F6668;" d="M180,192.965c1.6,1.6-0.8,5.6-4,8c-4,2.4-8,3.2-9.6,0.8c-1.6-1.6,0.8-5.6,4-8
	C174.4,191.365,178.4,191.365,180,192.965z"/>
<path style="fill:#DFEDEC;" d="M232,254.565c0,7.2-22.4-0.8-49.6-0.8c-28,0-49.6,8.8-49.6,0.8c0-7.2,22.4-13.6,49.6-13.6
	C209.6,240.965,232,246.565,232,254.565z"/>
<path style="fill:#A3B5B5;" d="M341.6,213.765c0,14.4-11.2,34.4-25.6,34.4s-25.6-20.8-25.6-34.4c0-14.4,11.2-25.6,25.6-25.6
	C329.6,188.165,341.6,199.365,341.6,213.765z"/>
<circle style="fill:#2C363A;" cx="316" cy="213.765" r="25.6"/>
<path d="M316,188.165c14.4,0,25.6,11.2,25.6,25.6c0,14.4-11.2,25.6-25.6,25.6"/>
<path style="fill:#5F6668;" d="M313.6,192.965c1.6,1.6-0.8,5.6-4,8c-4,2.4-8,3.2-9.6,0.8c-1.6-1.6,0.8-5.6,4-8
	C308,191.365,312,191.365,313.6,192.965z"/>
<path style="fill:#CEDCDD;" d="M365.6,254.565c0,7.2-22.4-0.8-49.6-0.8c-28,0-49.6,8.8-49.6,0.8c0-7.2,22.4-13.6,49.6-13.6
	C343.2,240.965,365.6,246.565,365.6,254.565z"/>
<path style="fill:#A0BABA;" d="M276,248.965c0,6.4-12,24-27.2,24c-15.2,0-27.2-17.6-27.2-24s12-12,27.2-12
	C264,236.965,276,241.765,276,248.965z"/>
<path style="fill:#D81A71;" d="M276,248.965c0,6.4-12,17.6-27.2,17.6c-15.2,0-27.2-10.4-27.2-17.6c0-6.4,12-12,27.2-12
	C264,236.965,276,241.765,276,248.965z"/>
<path style="fill:#C10865;" d="M248.8,236.965c15.2,0,27.2,5.6,27.2,12c0,6.4-12,17.6-27.2,17.6"/>
<g>
	<path style="fill:#8D9998;" d="M178.4,148.965c-0.8,0-1.6,0-1.6-0.8c-1.6-0.8-2.4-3.2-1.6-4.8c4.8-7.2,11.2-12.8,20-15.2
		c8-2.4,16.8-0.8,24.8,3.2c1.6,0.8,2.4,3.2,1.6,4.8c-0.8,1.6-3.2,2.4-4.8,1.6c-5.6-3.2-12.8-4.8-19.2-2.4c-6.4,1.6-12,5.6-15.2,11.2
		C180.8,148.165,179.2,148.965,178.4,148.965z"/>
	<path style="fill:#8D9998;" d="M319.2,148.965c0.8,0,1.6,0,1.6-0.8c1.6-0.8,2.4-3.2,1.6-4.8c-4.8-7.2-11.2-12.8-20-15.2
		c-8-2.4-16.8-0.8-24.8,3.2c-1.6,0.8-2.4,3.2-1.6,4.8s3.2,2.4,4.8,1.6c5.6-3.2,12.8-4.8,19.2-2.4c6.4,1.6,12,5.6,15.2,11.2
		C316.8,148.165,318.4,148.965,319.2,148.965z"/>
</g>
<path style="fill:#BACBCC;" d="M124,428.965c0,32-24,20-56,20l0,0c-32,0-56,11.2-56-20v-160.8c0-32,24-57.6,56-57.6l0,0
	c32,0,56,25.6,56,57.6V428.965z"/>
<path style="fill:#A1B4B5;" d="M124,379.365v-111.2c0-22.4-12-41.6-30.4-51.2l-65.6,65.6L124,379.365z"/>
<path style="fill:#BACBCC;" d="M134.4,264.965c0,29.6-30.4,24.8-67.2,24.8s-67.2,4.8-67.2-24.8c0-29.6,30.4-54.4,67.2-54.4
	S134.4,234.565,134.4,264.965z"/>
<path style="fill:#C10865;" d="M112,276.965c0,9.6-20,8-44.8,8s-44.8,1.6-44.8-8s20-17.6,44.8-17.6
	C92,258.565,112,266.565,112,276.965z"/>
<path style="fill:#A5085E;" d="M112,276.965c0,9.6-20,8-44.8,8s-44.8,1.6-44.8-8"/>
<path style="fill:#CEDCDD;" d="M0,264.965c0-29.6,30.4-54.4,67.2-54.4"/>
<circle style="fill:#EFC618;" cx="249.6" cy="393.765" r="8"/>
</svg>